<?xml version="1.0" encoding="UTF-8"?>
<svg width="11610px" height="11610px" viewBox="0 0 11610 11610" version="1.1" xmlns="http://www.w3.org/2000/svg" xmlns:xlink="http://www.w3.org/1999/xlink">
    <title>Group 2</title>
    <g id="Page-1" stroke="none" stroke-width="1" fill="none" fill-rule="evenodd">
        <g id="Group-2">
            <rect id="Rectangle" stroke="#FFA705" stroke-width="100" fill-opacity="0.7" fill="#000000" x="50" y="2801" width="11510" height="6008"></rect>
            <rect id="Rectangle" x="0" y="0" width="11610" height="11610"></rect>
            <g id="Crown-Boulevard-Logo" transform="translate(3408, 3505)" fill="#96702A" fill-rule="nonzero">
                <path d="M1860.96742,2360.87856 L1472.02608,1162.16284 C1895.33756,1376.13682 2197.32121,1789.14788 2263.086,2266.33898 L2276.08108,2360.93928 L2508.77791,2360.93928 L2521.77298,2266.33898 C2588.32719,1783.501 2895.53316,1367.63615 3326.19233,1155.48375 L2934.63983,2361 L4444.98316,2361 L4795,505.850504 C4676.04042,483.384451 4561.3923,561.651322 4538.9849,680.539245 L4502.79302,872.290042 C4332.15677,815.335562 4154.17284,786.008255 3971.75601,786.008255 C3830.26759,786.008255 3690.17584,804.709726 3553.60612,839.683906 L2397.77326,0 L1239.20779,841.626916 C1100.87706,805.316917 958.11342,785.947536 812.920798,785.947536 C633.783101,785.947536 459.260476,814.789091 291.781911,869.436246 L256.07582,680.539245 C233.607702,561.590603 118.959576,483.384451 0,505.850504 L350.563365,2361 L1860.78524,2361 L1860.96742,2360.87856 Z M3588.58351,1057.36174 C3876.05397,979.641343 4182.8956,991.481561 4461.74316,1090.57507 L4453.78823,1132.59266 C4343.3301,1717.8637 3832.02861,2141.68275 3236.38058,2141.68275 L3588.52279,1057.36174 L3588.58351,1057.36174 Z M2397.95543,270.746297 L3299.89856,926.026412 C2878.40881,1109.94445 2550.31356,1460.05056 2392.42949,1886.84485 C2235.27412,1462.54004 1909.54713,1113.34472 1491.82231,929.001646 L2397.89471,270.746297 L2397.95543,270.746297 Z M333.135393,1087.11408 C486.829464,1033.68131 647.567595,1004.96119 813.102972,1004.96119 C947.790231,1004.96119 1080.0485,1024.14842 1207.75243,1060.03338 L1559.46956,2141.68275 L1559.10521,2141.68275 C963.578638,2141.68275 452.337867,1717.98514 341.758292,1132.89626 L333.135393,1087.11408 L333.135393,1087.11408 Z" id="Shape"></path>
                <polygon id="Path" points="435.165106 2817 2008 2817 1937.20573 2598 394 2598"></polygon>
                <polygon id="Path" points="4401 2598 2857.81291 2598 2787 2817 4359.88478 2817"></polygon>
                <g id="Group" transform="translate(52, 3225)">
                    <path d="M760.842119,566.228107 L733.818834,546.549368 C661.432865,687.701807 535.061051,750.260762 414.822613,744.187077 C282.256698,736.777182 159.5892,612.874008 159.5892,399.323244 C159.5892,152.61016 282.256698,40.9150931 436.866326,49.5397257 C533.785795,54.4594106 590.322152,110.883944 635.684835,217.659326 C647.951585,247.116698 673.699614,255.741331 695.804054,255.741331 C708.070804,255.741331 720.337554,253.25112 728.960715,249.546172 C755.923274,237.277329 765.700238,207.819956 752.218958,182.006795 C695.804054,67.9429912 571.861301,6.5987729 439.295386,0.403614216 C230.760639,-8.16028161 0,119.387103 0,399.323244 C0,655.754224 211.085259,800.611611 414.761886,799.404453 C557.104765,799.404453 694.528798,724.569075 760.781392,566.228107 L760.842119,566.228107 Z" id="Path"></path>
                    <path d="M1435.3919,668.144541 L1318.79705,481.560939 C1430.47306,453.318304 1516.40103,380.980715 1516.40103,254.587331 C1516.40103,70.4939389 1345.75961,12.7939316 1154.41046,12.7939316 L917.577174,12.7939316 L917.577174,785.97403 L1077.10565,785.97403 L1077.10565,497.53473 L1161.69764,497.53473 L1279.50702,704.951072 C1315.03201,767.510028 1349.4032,798.242874 1419.36011,798.242874 C1465.99805,798.242874 1527.3318,776.195397 1527.3318,723.415075 L1527.3318,705.011809 C1490.47083,707.50202 1459.80395,708.716757 1435.33118,668.266015 L1435.3919,668.144541 Z M1167.89174,450.88883 L1077.10565,450.88883 L1077.10565,59.3790954 L1167.89174,59.3790954 C1262.38215,59.3790954 1356.87256,82.7020458 1356.87256,239.828276 C1356.87256,396.954507 1267.24027,450.88883 1167.89174,450.88883 Z" id="Shape"></path>
                    <path d="M2458.39025,399.383981 C2458.39025,165.000477 2277.97187,1.73982491 2048.54721,1.73982491 C1819.12256,1.73982491 1636.21439,165.000477 1636.21439,399.383981 C1636.21439,633.767484 1820.27636,798.182137 2048.54721,798.182137 C2276.81807,798.182137 2458.39025,633.767484 2458.39025,399.383981 Z M2048.48649,749.106762 C1904.92908,749.106762 1795.68213,599.390427 1795.68213,399.383981 C1795.68213,199.377534 1904.86835,50.8151996 2048.48649,50.8151996 C2192.10462,50.8151996 2298.80105,199.256061 2298.80105,399.383981 C2298.80105,599.511901 2190.82937,749.106762 2048.48649,749.106762 Z" id="Shape"></path>
                    <path d="M3527.90509,785.913293 L3877.62891,12.7331947 L3813.80538,12.7331947 C3802.69243,12.7331947 3794.13,18.9283534 3792.91547,29.9217232 C3776.9444,98.6758373 3751.19637,185.77248 3725.38762,242.25775 L3563.49081,591.980532 L3309.47193,12.7331947 L3167.12905,12.7331947 C3152.43324,78.9970979 3127.83902,161.295529 3104.58077,216.444589 L2941.34798,591.980532 L2687.3291,12.7331947 L2520.45272,12.7331947 L2871.39107,785.913293 L2904.54773,785.913293 L3199.01045,135.421631 L3494.68771,785.913293 L3527.84437,785.913293 L3527.90509,785.913293 Z" id="Path"></path>
                    <path d="M4061.08362,751.536236 C4036.55012,695.111703 4032.84581,606.678849 4031.63128,553.959264 L4023.06884,207.880693 L4601.00279,785.913293 L4652.49885,785.913293 L4652.49885,12.7331947 L4602.21732,12.7331947 C4577.6231,13.9479317 4570.33592,25.0020384 4580.11288,47.1102517 C4604.64638,104.749522 4608.3507,193.182376 4609.56523,244.687224 L4618.18839,592.041269 L4041.40824,12.7939316 L3988.69765,12.7939316 L3988.69765,787.249504 L4040.19371,787.249504 C4064.78794,786.034767 4072.07512,774.98066 4061.08362,751.65771 L4061.08362,751.536236 Z" id="Path"></path>
                    <path d="M324.70451,1118.75123 C324.70451,1063.41996 280.799262,1025.15574 208.47402,1025.15574 L39.5329411,1025.15574 L39.5329411,1368.80484 L208.47402,1368.80484 C280.738536,1368.80484 324.70451,1317.60368 324.70451,1263.42641 C324.70451,1232.87577 305.029129,1193.7005 292.155115,1189.50966 C311.283957,1176.57271 324.70451,1149.72702 324.70451,1118.75123 L324.70451,1118.75123 Z M208.47402,1321.79452 L92.7293412,1321.79452 L92.7293412,1214.83693 L212.117609,1214.83693 C249.828755,1214.83693 269.989948,1231.41809 269.989948,1263.48714 C269.989948,1292.94452 248.249867,1321.85526 208.47402,1321.85526 L208.47402,1321.79452 Z M212.117609,1166.79408 L92.7293412,1166.79408 L92.7293412,1072.2268 L208.47402,1072.2268 C248.249867,1072.2268 269.989948,1089.3546 269.989948,1118.81197 C269.989948,1150.33439 249.828755,1166.85482 212.117609,1166.85482 L212.117609,1166.79408 Z" id="Shape"></path>
                    <path d="M751.67242,1019.02132 C639.024792,1019.02132 556.376047,1091.84481 556.376047,1196.79808 C556.376047,1301.75136 638.964065,1375 751.67242,1375 C864.380774,1375 946.908066,1302.17652 946.908066,1196.79808 C946.908066,1091.41965 864.259321,1019.02132 751.67242,1019.02132 Z M751.67242,1327.50378 C668.962949,1327.50378 611.090609,1274.23757 611.090609,1196.79808 C611.090609,1119.3586 668.962949,1066.57828 751.67242,1066.57828 C834.381891,1066.57828 892.193504,1119.78376 892.193504,1196.79808 C892.193504,1273.81241 834.867703,1327.50378 751.67242,1327.50378 L751.67242,1327.50378 Z" id="Shape"></path>
                    <path d="M1437.94242,1213.25777 C1437.94242,1295.98136 1408.49007,1327.50378 1337.68299,1327.50378 C1266.87591,1327.50378 1236.93775,1295.43473 1236.93775,1213.25777 L1236.93775,1025.15574 L1181.67665,1025.15574 L1181.67665,1213.25777 C1181.67665,1307.82504 1218.35545,1375 1337.68299,1375 C1457.01053,1375 1493.20352,1305.75999 1493.20352,1213.25777 L1493.20352,1025.15574 L1437.94242,1025.15574 L1437.94242,1213.25777 Z" id="Path"></path>
                    <polygon id="Path" points="1807.94888 1025.21648 1754.75248 1025.21648 1754.75248 1368.80484 2004.33833 1368.80484 2004.33833 1321.79452 1807.94888 1321.79452"></polygon>
                    <polygon id="Path" points="2287.02012 1218.4204 2468.3494 1218.4204 2468.3494 1171.95671 2287.02012 1171.95671 2287.02012 1072.2268 2497.31593 1072.2268 2497.31593 1025.21648 2233.82372 1025.21648 2233.82372 1368.80484 2501.93114 1368.80484 2501.93114 1321.79452 2287.02012 1321.79452"></polygon>
                    <polygon id="Path" points="2886.51197 1305.33483 2766.57716 1025.21648 2707.24739 1025.21648 2859.0636 1368.80484 2914.38542 1368.80484 3065.77655 1025.21648 3006.81113 1025.21648"></polygon>
                    <path d="M3374.87435,1025.21648 L3217.34985,1368.86558 L3276.67963,1368.86558 L3315.96966,1285.1702 L3491.59065,1285.1702 L3529.78761,1368.86558 L3588.6923,1368.86558 L3431.1678,1025.21648 L3374.81363,1025.21648 L3374.87435,1025.21648 Z M3337.64902,1238.64577 L3403.29435,1086.19628 L3470.39711,1238.64577 L3337.58829,1238.64577 L3337.64902,1238.64577 Z" id="Shape"></path>
                    <path d="M4102.92417,1119.23713 C4102.92417,1063.96659 4059.01892,1025.76311 3986.69368,1025.76311 L3817.7526,1025.76311 L3817.7526,1369.41221 L3870.46319,1369.41221 L3870.949,1213.86514 L3929.91442,1213.86514 L4044.08021,1368.86558 L4112.27605,1368.86558 L3992.4627,1213.86514 C4061.14435,1211.80008 4102.9849,1172.01745 4102.9849,1119.29786 L4102.92417,1119.23713 Z M3870.949,1166.79408 L3870.949,1072.2268 L3986.69368,1072.2268 C4026.46953,1072.2268 4048.20961,1089.3546 4048.20961,1118.81197 C4048.20961,1148.26934 4026.46953,1166.85482 3986.69368,1166.85482 L3870.949,1166.85482 L3870.949,1166.79408 Z" id="Shape"></path>
                    <path d="M4480.27854,1025.21648 L4340.78981,1025.21648 L4340.78981,1368.86558 L4480.27854,1368.86558 C4592.86544,1368.86558 4676,1302.17652 4676,1196.79808 C4676,1091.41965 4592.86544,1025.21648 4480.27854,1025.21648 Z M4480.27854,1321.24789 L4393.98621,1321.24789 L4393.98621,1072.7127 L4480.27854,1072.7127 C4566.08506,1072.7127 4621.28544,1122.3347 4621.28544,1196.73735 C4621.28544,1271.13999 4566.02434,1321.24789 4480.27854,1321.24789 Z" id="Shape"></path>
                </g>
            </g>
        </g>
    </g>
</svg>