<svg width="314" height="314" viewBox="0 0 314 314" fill="none" xmlns="http://www.w3.org/2000/svg">
<path d="M129.161 181.715L109.049 119.725C130.938 130.79 146.553 152.149 149.954 176.826L150.626 181.718H162.658L163.33 176.826C166.772 151.857 182.657 130.351 204.926 119.38L184.679 181.721H262.777L280.876 85.7848C274.725 84.623 268.797 88.6705 267.638 94.8186L265.766 104.735C256.943 101.789 247.74 100.273 238.307 100.273C230.991 100.273 223.747 101.24 216.685 103.049L156.918 59.6255L97.0103 103.149C89.8574 101.271 82.4752 100.27 74.9675 100.27C65.7045 100.27 56.6801 101.761 48.02 104.587L46.1737 94.8186C45.0119 88.6673 39.0836 84.623 32.9323 85.7848L51.0595 181.721H129.151L129.161 181.715ZM218.494 114.305C233.359 110.286 249.225 110.899 263.644 116.023L263.232 118.196C257.521 148.462 231.082 170.38 200.282 170.38L218.491 114.305H218.494ZM156.928 73.6267L203.566 107.514C181.771 117.025 164.806 135.13 156.642 157.201C148.516 135.259 131.673 117.201 110.073 107.667L156.925 73.6267H156.928ZM50.1584 115.844C58.1057 113.081 66.4173 111.596 74.9769 111.596C81.9414 111.596 88.7803 112.588 95.3838 114.444L113.571 170.38H113.552C82.7578 170.38 56.3222 148.469 50.6042 118.212L50.1584 115.844Z" fill="#96702A"/>
<path d="M55.4367 205.284H136.778L133.117 193.948H53.3078L55.4367 205.284Z" fill="#96702A"/>
<path d="M260.52 193.948H180.732L177.071 205.284H258.394L260.52 193.948Z" fill="#96702A"/>
<path d="M74.9644 255.681L73.5671 254.663C69.8242 261.961 63.2898 265.195 57.0726 264.881C50.218 264.498 43.8752 258.092 43.8752 247.052C43.8752 234.297 50.218 228.523 58.2125 228.969C63.2239 229.223 66.1472 232.14 68.4928 237.66C69.1271 239.183 70.4585 239.629 71.6014 239.629C72.2357 239.629 72.87 239.5 73.3159 239.309C74.71 238.675 75.2156 237.152 74.5185 235.817C71.6014 229.92 65.1927 226.749 58.3381 226.429C47.5553 225.986 35.6233 232.58 35.6233 247.052C35.6233 260.309 46.5379 267.798 57.0695 267.735C64.4297 267.735 71.5355 263.867 74.9612 255.681H74.9644Z" fill="#96702A"/>
<path d="M109.843 260.95L103.815 251.304C109.589 249.844 114.032 246.104 114.032 239.569C114.032 230.052 105.209 227.069 95.3147 227.069H83.0687V267.041H91.3175V252.129H95.6915L101.783 262.853C103.62 266.087 105.397 267.676 109.014 267.676C111.426 267.676 114.597 266.536 114.597 263.807V262.856C112.691 262.984 111.106 263.047 109.84 260.956L109.843 260.95ZM96.0117 249.718H91.3175V229.477H96.0117C100.898 229.477 105.783 230.683 105.783 238.806C105.783 246.93 101.149 249.718 96.0117 249.718Z" fill="#96702A"/>
<path d="M162.74 247.055C162.74 234.938 153.411 226.498 141.548 226.498C129.685 226.498 120.227 234.938 120.227 247.055C120.227 259.172 129.745 267.672 141.548 267.672C153.351 267.672 162.74 259.172 162.74 247.055ZM141.545 265.135C134.122 265.135 128.473 257.395 128.473 247.055C128.473 236.715 134.119 229.035 141.545 229.035C148.971 229.035 154.488 236.709 154.488 247.055C154.488 257.401 148.905 265.135 141.545 265.135Z" fill="#96702A"/>
<path d="M218.042 267.038L236.125 227.066H232.825C232.25 227.066 231.807 227.386 231.745 227.955C230.919 231.509 229.587 236.012 228.253 238.932L219.882 257.012L206.747 227.066H199.387C198.627 230.492 197.355 234.746 196.153 237.598L187.712 257.012L174.578 227.066H165.949L184.095 267.038H185.809L201.035 233.409L216.324 267.038H218.038H218.042Z" fill="#96702A"/>
<path d="M245.611 265.261C244.342 262.344 244.151 257.772 244.088 255.046L243.645 237.155L273.529 267.038H276.191V227.066H273.591C272.32 227.129 271.943 227.7 272.448 228.843C273.717 231.823 273.908 236.395 273.971 239.058L274.417 257.015L244.593 227.069H241.868V267.107H244.531C245.802 267.044 246.179 266.473 245.611 265.267V265.261Z" fill="#96702A"/>
<path d="M52.4129 284.245C52.4129 281.385 50.1426 279.407 46.4029 279.407H37.6674V297.173H46.4029C50.1395 297.173 52.4129 294.526 52.4129 291.725C52.4129 290.145 51.3955 288.12 50.7298 287.903C51.7189 287.235 52.4129 285.847 52.4129 284.245ZM46.4029 294.742H40.4181V289.213H46.5913C48.5412 289.213 49.5837 290.07 49.5837 291.728C49.5837 293.251 48.4596 294.746 46.4029 294.746V294.742ZM46.5913 286.729H40.4181V281.84H46.4029C48.4596 281.84 49.5837 282.726 49.5837 284.248C49.5837 285.878 48.5412 286.732 46.5913 286.732V286.729Z" fill="#96702A"/>
<path d="M74.4902 279.089C68.6655 279.089 64.392 282.854 64.392 288.28C64.392 293.706 68.6624 297.493 74.4902 297.493C80.318 297.493 84.5853 293.728 84.5853 288.28C84.5853 282.832 80.3118 279.089 74.4902 279.089ZM74.4902 295.038C70.2135 295.038 67.2211 292.284 67.2211 288.28C67.2211 284.277 70.2135 281.548 74.4902 281.548C78.7669 281.548 81.7562 284.299 81.7562 288.28C81.7562 292.262 78.792 295.038 74.4902 295.038Z" fill="#96702A"/>
<path d="M109.975 289.131C109.975 293.408 108.452 295.038 104.791 295.038C101.13 295.038 99.582 293.38 99.582 289.131V279.407H96.7245V289.131C96.7245 294.02 98.6211 297.493 104.791 297.493C110.961 297.493 112.833 293.913 112.833 289.131V279.407H109.975V289.131Z" fill="#96702A"/>
<path d="M129.107 279.41H126.357V297.173H139.262V294.742H129.107V279.41Z" fill="#96702A"/>
<path d="M153.879 289.398H163.255V286.996H153.879V281.84H164.753V279.41H151.128V297.173H164.991V294.742H153.879V289.398Z" fill="#96702A"/>
<path d="M184.877 293.891L178.675 279.41H175.608L183.458 297.173H186.318L194.146 279.41H191.097L184.877 293.891Z" fill="#96702A"/>
<path d="M210.129 279.41L201.984 297.176H205.051L207.083 292.849H216.164L218.139 297.176H221.185L213.04 279.41H210.126H210.129ZM208.204 290.444L211.598 282.562L215.068 290.444H208.201H208.204Z" fill="#96702A"/>
<path d="M247.774 284.27C247.774 281.413 245.504 279.438 241.764 279.438H233.029V297.204H235.754L235.779 289.163H238.828L244.732 297.176H248.258L242.063 289.163C245.614 289.056 247.777 286.999 247.777 284.274L247.774 284.27ZM235.779 286.729V281.84H241.764C243.821 281.84 244.945 282.726 244.945 284.248C244.945 285.771 243.821 286.732 241.764 286.732H235.779V286.729Z" fill="#96702A"/>
<path d="M267.286 279.41H260.074V297.176H267.286C273.108 297.176 277.406 293.728 277.406 288.28C277.406 282.832 273.108 279.41 267.286 279.41ZM267.286 294.714H262.824V281.865H267.286C271.723 281.865 274.577 284.431 274.577 288.277C274.577 292.124 271.72 294.714 267.286 294.714Z" fill="#96702A"/>
</svg>
