<svg width="150" height="75" viewBox="0 0 150 75" fill="none" xmlns="http://www.w3.org/2000/svg">
<path d="M116.964 6.1245H100.947V56.6085H116.964V6.1245Z" fill="#EB222A"/>
<path d="M136.184 21.462H120.167V56.6085H136.184V21.462Z" fill="#EB222A"/>
<path d="M120.166 6.1245H136.183V18.9045L120.79 19.2645C119.377 18.2535 120.552 8.4375 120.166 6.1245Z" fill="#EB222A"/>
<path d="M31.755 6.1245L31.761 30.408L39.7635 22.101H61.866L47.157 38.9685L83.0085 68.7495H58.023L31.755 47.6625V56.6085H13.8165V6.1245H31.755Z" fill="#EB222A"/>
<path d="M97.7445 21.462V56.6085H81.087L81.084 49.5825C79.8225 49.2555 79.845 50.1015 79.2825 50.655C77.883 52.0335 74.868 56.982 73.194 56.5365L51.627 39.333C50.604 37.86 65.772 23.823 67.3125 21.4605H97.7445V21.462ZM81.087 42.549V29.769L74.0385 37.098L81.087 42.549Z" fill="#EB222A"/>
</svg>
